<svg width="101" height="39" viewBox="0 0 101 39" fill="none" xmlns="http://www.w3.org/2000/svg">
<path d="M5.53125 11.168C4.32325 11.168 3.35125 10.752 2.61525 9.92C1.87925 9.088 1.51125 8.016 1.51125 6.704C1.51125 5.408 1.87525 4.34 2.60325 3.5C3.33925 2.652 4.33125 2.228 5.57925 2.228C6.55525 2.228 7.34325 2.48 7.94325 2.984C8.54325 3.488 8.90325 4.148 9.02325 4.964H7.96725C7.86325 4.42 7.59925 3.984 7.17525 3.656C6.75925 3.328 6.21925 3.164 5.55525 3.164C4.63525 3.164 3.91525 3.496 3.39525 4.16C2.87525 4.816 2.61525 5.664 2.61525 6.704C2.61525 7.76 2.88325 8.612 3.41925 9.26C3.96325 9.9 4.67925 10.22 5.56725 10.22C6.33525 10.22 6.92725 9.996 7.34325 9.548C7.76725 9.1 8.00725 8.536 8.06325 7.856H9.13125C9.12325 8.28 9.02325 8.716 8.83125 9.164C8.64725 9.604 8.40325 9.972 8.09925 10.268C7.48325 10.868 6.62725 11.168 5.53125 11.168ZM10.3431 11V2.42H14.3511C15.1031 2.42 15.7111 2.636 16.1751 3.068C16.6471 3.5 16.8831 4.068 16.8831 4.772C16.8831 5.868 16.3871 6.576 15.3951 6.896V6.932C15.8191 7.084 16.1191 7.324 16.2951 7.652C16.4791 7.972 16.5911 8.46 16.6311 9.116C16.7111 10.212 16.8431 10.824 17.0271 10.952V11H15.8631C15.7751 10.928 15.7111 10.776 15.6711 10.544C15.6391 10.312 15.5991 9.824 15.5511 9.08C15.5111 8.456 15.3551 8.016 15.0831 7.76C14.8191 7.504 14.3951 7.376 13.8111 7.376H11.4231V11H10.3431ZM11.4231 3.356V6.5H13.9671C14.5591 6.5 15.0071 6.364 15.3111 6.092C15.6151 5.812 15.7671 5.424 15.7671 4.928C15.7671 4.392 15.6311 3.996 15.3591 3.74C15.0871 3.484 14.6431 3.356 14.0271 3.356H11.4231ZM18.1946 11V2.42H24.2546V3.368H19.2746V6.08H23.7986V6.992H19.2746V10.004H24.3986V11H18.1946ZM25.0927 11L28.2487 2.42H29.4607L32.6287 11H31.4527L30.5407 8.384H27.1207L26.1967 11H25.0927ZM28.4527 4.628L27.4327 7.508H30.2407L29.2567 4.628L28.8727 3.416H28.8487C28.6967 3.896 28.5647 4.3 28.4527 4.628ZM31.9398 3.368V2.42H38.7318V3.368H35.8758V11H34.7958V3.368H31.9398ZM24.136 25V16.42H30.196V17.368H25.216V20.08H29.74V20.992H25.216V24.004H30.34V25H24.136ZM31.6009 25V16.42H34.7209C35.9769 16.42 36.9249 16.808 37.5649 17.584C38.2049 18.36 38.5249 19.412 38.5249 20.74C38.5249 22.06 38.1929 23.1 37.5289 23.86C36.8649 24.62 35.9009 25 34.6369 25H31.6009ZM32.6809 24.052H34.6009C36.4809 24.052 37.4209 22.948 37.4209 20.74C37.4209 18.484 36.5089 17.356 34.6849 17.356H32.6809V24.052Z" fill="#AEAEAE"/>
<path d="M77.886 22V13.42H83.706V14.368H78.966V17.044H82.914V17.956H78.966V22H77.886ZM91.5132 20.92C90.7532 21.76 89.7372 22.18 88.4652 22.18C87.1932 22.18 86.1732 21.76 85.4052 20.92C84.6452 20.08 84.2652 19.008 84.2652 17.704C84.2652 16.4 84.6452 15.328 85.4052 14.488C86.1732 13.648 87.1932 13.228 88.4652 13.228C89.7372 13.228 90.7532 13.648 91.5132 14.488C92.2812 15.328 92.6652 16.4 92.6652 17.704C92.6652 19.008 92.2812 20.08 91.5132 20.92ZM86.1852 20.248C86.7292 20.904 87.4892 21.232 88.4652 21.232C89.4412 21.232 90.2012 20.904 90.7452 20.248C91.2892 19.592 91.5612 18.744 91.5612 17.704C91.5612 16.664 91.2892 15.816 90.7452 15.16C90.2012 14.496 89.4412 14.164 88.4652 14.164C87.4892 14.164 86.7292 14.496 86.1852 15.16C85.6412 15.816 85.3692 16.664 85.3692 17.704C85.3692 18.744 85.6412 19.592 86.1852 20.248ZM93.9524 22V13.42H97.9604C98.7124 13.42 99.3204 13.636 99.7844 14.068C100.256 14.5 100.492 15.068 100.492 15.772C100.492 16.868 99.9964 17.576 99.0044 17.896V17.932C99.4284 18.084 99.7284 18.324 99.9044 18.652C100.088 18.972 100.2 19.46 100.24 20.116C100.32 21.212 100.452 21.824 100.636 21.952V22H99.4724C99.3844 21.928 99.3204 21.776 99.2804 21.544C99.2484 21.312 99.2084 20.824 99.1604 20.08C99.1204 19.456 98.9644 19.016 98.6924 18.76C98.4284 18.504 98.0044 18.376 97.4204 18.376H95.0324V22H93.9524ZM95.0324 14.356V17.5H97.5764C98.1684 17.5 98.6164 17.364 98.9204 17.092C99.2244 16.812 99.3764 16.424 99.3764 15.928C99.3764 15.392 99.2404 14.996 98.9684 14.74C98.6964 14.484 98.2524 14.356 97.6364 14.356H95.0324ZM40.304 36V27.42H46.364V28.368H41.384V31.08H45.908V31.992H41.384V35.004H46.508V36H40.304ZM47.7688 36V27.42H49.1488L51.9328 34.548H51.9568L54.7168 27.42H56.1208V36H55.0888V28.944H55.0648C54.9128 29.392 54.7848 29.752 54.6808 30.024L52.3288 36H51.5008L49.1488 30.024L48.7648 28.944H48.7408V36H47.7688ZM64.6538 34.92C63.8938 35.76 62.8778 36.18 61.6058 36.18C60.3338 36.18 59.3138 35.76 58.5458 34.92C57.7858 34.08 57.4058 33.008 57.4058 31.704C57.4058 30.4 57.7858 29.328 58.5458 28.488C59.3138 27.648 60.3338 27.228 61.6058 27.228C62.8778 27.228 63.8938 27.648 64.6538 28.488C65.4218 29.328 65.8058 30.4 65.8058 31.704C65.8058 33.008 65.4218 34.08 64.6538 34.92ZM59.3258 34.248C59.8698 34.904 60.6298 35.232 61.6058 35.232C62.5818 35.232 63.3418 34.904 63.8858 34.248C64.4298 33.592 64.7018 32.744 64.7018 31.704C64.7018 30.664 64.4298 29.816 63.8858 29.16C63.3418 28.496 62.5818 28.164 61.6058 28.164C60.6298 28.164 59.8698 28.496 59.3258 29.16C58.7818 29.816 58.5098 30.664 58.5098 31.704C58.5098 32.744 58.7818 33.592 59.3258 34.248ZM66.014 28.368V27.42H72.806V28.368H69.95V36H68.87V28.368H66.014ZM73.9022 36V27.42H74.9822V36H73.9022ZM83.5327 34.92C82.7727 35.76 81.7567 36.18 80.4847 36.18C79.2127 36.18 78.1927 35.76 77.4247 34.92C76.6647 34.08 76.2847 33.008 76.2847 31.704C76.2847 30.4 76.6647 29.328 77.4247 28.488C78.1927 27.648 79.2127 27.228 80.4847 27.228C81.7567 27.228 82.7727 27.648 83.5327 28.488C84.3007 29.328 84.6847 30.4 84.6847 31.704C84.6847 33.008 84.3007 34.08 83.5327 34.92ZM78.2047 34.248C78.7487 34.904 79.5087 35.232 80.4847 35.232C81.4607 35.232 82.2207 34.904 82.7647 34.248C83.3087 33.592 83.5807 32.744 83.5807 31.704C83.5807 30.664 83.3087 29.816 82.7647 29.16C82.2207 28.496 81.4607 28.164 80.4847 28.164C79.5087 28.164 78.7487 28.496 78.2047 29.16C77.6607 29.816 77.3887 30.664 77.3887 31.704C77.3887 32.744 77.6607 33.592 78.2047 34.248ZM85.972 36V27.42H87.112L91.024 33.384L91.648 34.488H91.672V27.42H92.68V36H91.576L87.64 30.024L87.004 28.956H86.98V36H85.972ZM97.4123 36.168C96.2603 36.168 95.3723 35.884 94.7483 35.316C94.1323 34.748 93.8003 34.008 93.7523 33.096H94.8083C94.9523 34.568 95.8363 35.304 97.4603 35.304C98.0763 35.304 98.5683 35.168 98.9363 34.896C99.3123 34.616 99.5003 34.216 99.5003 33.696C99.5003 33.464 99.4563 33.26 99.3683 33.084C99.2803 32.908 99.1723 32.764 99.0443 32.652C98.9243 32.54 98.7403 32.436 98.4923 32.34C98.2443 32.244 98.0123 32.168 97.7963 32.112C97.5883 32.056 97.3003 31.988 96.9323 31.908C96.4923 31.812 96.1283 31.716 95.8403 31.62C95.5523 31.516 95.2643 31.376 94.9763 31.2C94.6883 31.024 94.4723 30.8 94.3283 30.528C94.1923 30.248 94.1243 29.912 94.1243 29.52C94.1243 28.816 94.3883 28.264 94.9163 27.864C95.4523 27.456 96.1603 27.252 97.0403 27.252C98.9683 27.252 100.052 28.144 100.292 29.928H99.2723C99.1923 29.32 98.9643 28.864 98.5883 28.56C98.2123 28.248 97.7043 28.092 97.0643 28.092C96.4723 28.092 96.0003 28.212 95.6483 28.452C95.3043 28.692 95.1323 29.032 95.1323 29.472C95.1323 29.664 95.1683 29.836 95.2403 29.988C95.3203 30.132 95.4203 30.256 95.5403 30.36C95.6683 30.456 95.8323 30.544 96.0323 30.624C96.2403 30.704 96.4443 30.772 96.6443 30.828C96.8443 30.876 97.0883 30.928 97.3763 30.984C97.7763 31.064 98.1043 31.14 98.3603 31.212C98.6163 31.276 98.9003 31.376 99.2123 31.512C99.5243 31.648 99.7643 31.804 99.9323 31.98C100.108 32.156 100.256 32.388 100.376 32.676C100.504 32.956 100.568 33.284 100.568 33.66C100.568 34.444 100.276 35.06 99.6923 35.508C99.1163 35.948 98.3563 36.168 97.4123 36.168Z" fill="#AEAEAE"/>
</svg>
